<svg xmlns="http://www.w3.org/2000/svg" id="Layer_1" data-name="Layer 1" viewBox="85.5 35.72 942.17 223.84"><defs><style>.cls-1,.cls-2{fill:#231f20;}.cls-1{fill-rule:evenodd;}</style></defs><path class="cls-1" d="M762.79,52.65a8.42,8.42,0,0,0-1.72-4.37c-.71-.77-1.8-1.09-3.75-.32,0,0,3.61.17,2.82,4.71h2.65Z"/><path class="cls-1" d="M697.64,47.11a4.16,4.16,0,1,0,3.83,4.15,4,4,0,0,0-3.83-4.15"/><path class="cls-1" d="M690.64,55.63a2.88,2.88,0,1,0,2.66,2.88,2.78,2.78,0,0,0-2.66-2.88"/><path class="cls-1" d="M686,63.85a1.95,1.95,0,1,0,1.8,1.94,1.87,1.87,0,0,0-1.8-1.94"/><path class="cls-2" d="M955.54,147.78H914.63l-5.09,12.32a29.57,29.57,0,0,0-2.4,10.25c0,3.59,1.32,6.23,3.94,7.94,1.56,1,5.38,1.75,11.47,2.25v3.24H883.69v-3.24A17,17,0,0,0,894,174.87c2.7-3.11,6.06-9.53,10-19.25L945.78,55h1.65l42.15,103.41c4,9.9,7.32,16.16,9.91,18.73,2,2,4.71,3.08,8.29,3.39v3.24H951.26v-3.24h2.32c4.54,0,7.74-.7,9.56-2.09a5.17,5.17,0,0,0,1.88-4.32,12.12,12.12,0,0,0-.5-3.52c-.12-.53-1-2.92-2.58-7.08l-6.39-15.75Zm-2.76-6.86-17.44-43-17.85,43Z"/><path class="cls-2" d="M889.05,57.49v34.1h-3q-2.77-11.81-6.12-17a23.77,23.77,0,0,0-9.23-8.22c-2.17-1.11-6-1.68-11.47-1.68h-8.82v97.53q0,9.75,1,12.19a9.31,9.31,0,0,0,3.82,4.26,14.25,14.25,0,0,0,7.79,1.84h3.82v3.24H805.94v-3.24h3.86a15,15,0,0,0,8.12-2,8.81,8.81,0,0,0,3.49-4.51c.61-1.49,1-5.42,1-11.81V64.73h-8.48c-7.82,0-13.49,1.8-17.06,5.4q-7.44,7.52-9.41,21.46h-3.35V57.49Z"/><path class="cls-2" d="M675.3,180.54v3.25H614.42v-3.25h3.85a15,15,0,0,0,8.17-2,8.31,8.31,0,0,0,3.44-4.51c.62-1.49,1-5.42,1-11.81V79q0-9.76-1-12.2a9.12,9.12,0,0,0-3.82-4.25,14.14,14.14,0,0,0-7.79-1.84h-3.85V57.48H675.3v3.24h-3.86a15,15,0,0,0-8.11,2,8.92,8.92,0,0,0-3.5,4.51c-.62,1.5-1,5.43-1,11.82v83.24q0,9.75,1,12.19a9.44,9.44,0,0,0,3.85,4.26,14.21,14.21,0,0,0,7.74,1.83Z"/><path class="cls-2" d="M609,57.49v3.24c-4.23.76-8,3.21-11.34,7.4q-3.61,4.65-10.79,22l-40.06,96.52H544L504.08,86.17q-7.23-18.24-9.68-21.39t-9.26-4V57.5H540.9v3.24H539c-5.06,0-8.53.71-10.36,2.1a4.7,4.7,0,0,0-2,4.15,14.05,14.05,0,0,0,.68,4c.46,1.53,2,5.65,4.67,12.39L557,146.13l23-55.84c2.79-6.86,4.53-11.43,5.14-13.74a22.53,22.53,0,0,0,1-5.94,9.18,9.18,0,0,0-1.38-5,8.92,8.92,0,0,0-4.06-3.31,25.64,25.64,0,0,0-9.82-1.59V57.48H609Z"/><path class="cls-2" d="M340,139.6l-4.41,44.2H232v-3.24h3.85a15.07,15.07,0,0,0,8.18-2,8.35,8.35,0,0,0,3.44-4.51q.93-2.23.94-11.81V79q0-9.76-.94-12.2a9.23,9.23,0,0,0-3.82-4.25,14.2,14.2,0,0,0-7.8-1.84H232V57.49h62.29v3.24h-5.12a15.4,15.4,0,0,0-8.21,2,9.05,9.05,0,0,0-3.56,4.51c-.61,1.5-.95,5.43-.95,11.82v80.58c0,6.45.36,10.57,1,12.35a7.07,7.07,0,0,0,4,4c1.44.54,4.91.83,10.38.83h9.71q9.27,0,15.44-3.53a29.78,29.78,0,0,0,10.71-11.15q4.49-7.62,8.53-22.47Z"/><path class="cls-1" d="M718.73,62.12s-17.22,10.73-4.15,25.37c0,0-9.09-13.22,4.15-25.37"/><path class="cls-1" d="M757.84,113m0,0s21.64,12.29,18.65,37.29c0,0,.12,14.32-14.9,26.08,0,0,29.54-29.18-3.75-63.36"/><path class="cls-1" d="M691.72,137.93a9.85,9.85,0,0,0-1.71-4.39,3.71,3.71,0,0,0-4.07-1.3s2.73,1.2,2.71,5.68h3.07Z"/><path class="cls-1" d="M760.11,94.79a9.88,9.88,0,0,0,1.68,4.41,3.69,3.69,0,0,0,4.05,1.33s-2.12-1.33-2.18-5.7l-3.56,0Z"/><path class="cls-1" d="M760.62,106.06a4.15,4.15,0,1,1-3.83,4.14,4,4,0,0,1,3.83-4.14"/><path class="cls-1" d="M767.61,114.57a2.88,2.88,0,1,1-2.66,2.88,2.79,2.79,0,0,1,2.66-2.88"/><path class="cls-1" d="M772.3,122.8a1.95,1.95,0,1,1-1.79,1.94,1.88,1.88,0,0,1,1.79-1.94"/><path class="cls-1" d="M700.42,54.08m0,0s-21.65,12.3-18.65,37.3c0,0-.13,14.32,14.9,26.08,0,0-29.55-29.19,3.75-63.36"/><path class="cls-2" d="M752.8,168.62a25,25,0,0,1-1.23,3.12c.44-1.07.84-2.11,1.23-3.12,2.66-8,6.6-29.49-22.24-41.26-36.3-14.81-34.23-42.54-34.23-42.54,10.35,50.4,76.47,30.65,56.47,83.81Zm11-44.32q-7.19-9.72-27.85-20.66c-9.83-5.23-16.1-8.9-18.81-11A30.58,30.58,0,0,1,709.08,84a15.35,15.35,0,0,1-1.83-7.51,15.91,15.91,0,0,1,5.17-11.71q5.15-5.13,14-5.12,11.46,0,21.33,9.68t12.36,25.57h3.55l-.89-42.33v0h-2.66c-.75,3.76-1.57,6.15-2.43,7.15a4.35,4.35,0,0,1-3.55,1.47c-1.57,0-4.29-1-8.2-3A54.61,54.61,0,0,0,736,54.08a41.37,41.37,0,0,0-11.09-1.47q-15.7,0-26,10.66a35.81,35.81,0,0,0-10.32,25.86,35.32,35.32,0,0,0,3.75,16.28,44.06,44.06,0,0,0,10.73,13.37c4.67,4,12.36,8.85,23.07,14.49q11.43,6.09,16,9.87a27.22,27.22,0,0,1,6.72,8,18.43,18.43,0,0,1,2.22,8.68,18.1,18.1,0,0,1-5.77,13.28c-3.84,3.79-9,5.71-15.49,5.71q-12.6,0-23.48-10.6t-14.7-30.77h-3v47.88h3a13.2,13.2,0,0,1,4.08-5.78,8.2,8.2,0,0,1,4.77-1.88,17.51,17.51,0,0,1,6.85,1.85,72.07,72.07,0,0,0,12.42,4.6,44.44,44.44,0,0,0,10.5,1.21q17.71,0,29.19-11.46a37.19,37.19,0,0,0,11.5-27.32,36.56,36.56,0,0,0-7.12-22.25Z"/><path class="cls-2" d="M414.25,56q27.93-1.1,45.41,17.55c11.65,12.48,17.47,28,17.47,46.76q0,23.94-13,42.18-17.25,24.14-48.73,24.16t-48.82-23q-13.64-18.22-13.65-43.2,0-22.53,11.41-39c-.87,2-1.68,4.1-2.32,5.82C360.4,91.51,358.47,99,358.47,105c0,7.55.68,13,3.6,19.29.44,1,.78,1.78,1.27,2.66.6,1.08,2.36,4.25,3,4.78a44.75,44.75,0,0,0,4-4.62,79.33,79.33,0,0,0,4.57-7,63.1,63.1,0,0,0,4.71-10c.5-1.36,1-2.89,1.45-4.4a34,34,0,0,0,1.11-4.94c.6.44,1.59,2.44,2.16,3.26.4.58.75,1,1.16,1.56a35.66,35.66,0,0,0,17.11,12.48,21.94,21.94,0,0,0,4.26,1.17l.62-4.26a69.85,69.85,0,0,0-.22-13.94c-.21-1.53-.41-2.82-.72-4.14a52.3,52.3,0,0,0-2.24-7.6c-.25-.68-.46-1-.71-1.68s-.46-1.18-.76-1.81c9.64,2.45,17.31,1.54,26.54-1.33A25.31,25.31,0,0,0,434,82.65a31.79,31.79,0,0,0-2.37-5c-5.62-10.36-15.09-16.16-26-18.12a47.33,47.33,0,0,0-7.1-.65h-2.9c-1,0-2.09.07-3.14.14a57.3,57.3,0,0,1,21.74-3"/><path class="cls-1" d="M716.2,82.32a2.88,2.88,0,1,0,2.66,2.87,2.77,2.77,0,0,0-2.66-2.87"/><path class="cls-1" d="M170,130.76H226.8V134c-4.33.32-7.35,1-9.06,1.94a9.53,9.53,0,0,0-3.91,4.89c-.52,1.18-.79,4.13-.79,8.79v26.1a110.16,110.16,0,0,1-23.29,8.12,113.36,113.36,0,0,1-21.85,2.69v0c-.66,0-1.32,0-2,0s-1.19,0-1.78,0c-10.84,0-19.88-1.66-27.1-4.89a67.67,67.67,0,0,1-19.29-12.75c-4-.51-9.24.2-14.94-.37-8.9-.91-10.78-2.11-12.73-5.94s1.67-9.39,1.67-9.39.84-4.13-1.46-4.95a3.72,3.72,0,0,1-2.36-4.51c.36-1.57,5.22-2.25,5.22-2.25-5.63-2.11-6.25-4.13-6.47-5.72s.69-1.87,2-2.55,1.31-1.35,1.52-3.08a2.65,2.65,0,0,0-1.11-2.55,6.54,6.54,0,0,1-3.2-3.31,2.69,2.69,0,0,1,.84-3.61s12-10.22,12.66-11a.76.76,0,0,0,.11-.14c0-.21.07-.43.1-.64a1.51,1.51,0,0,0-.42-.72C93.85,104.78,95,102.3,95,102.3c1.82,3.75,2.72,3.53,2.72,3.53a7.41,7.41,0,0,1-1-3.76c2.1,4.21,3.35,4.51,3.35,4.51a38.63,38.63,0,0,1,3.34-14.7h0a53.79,53.79,0,0,1,9.18-14c-5.8,1.83-12.64,7.34-16,17.79,0,0,1-18.53,16.65-23.61-6-7.56.81-16.45,6.52-15.73,4.56.57,5.24,5.83,5.24,5.83a6.83,6.83,0,0,0-2-2.05c-3.17-2-7.4.52-7.47,4.48,0,2.68,2,4.77,4.24,6.26h.14a64,64,0,0,1,5.48-4.12c5.45-17-4.81-16.33-4.81-16.33s7.22-5.81,13.42,9a15.77,15.77,0,0,1,1,3.34c12.47-5.82,28.73-8.45,49-2.14a48.27,48.27,0,0,0,8.64,1.1c5.19.23,12.44-5.36,11.26-11.24-2.82-14-22.24-3.19-24.48-1.38,0,0-.06,0,0,0,1.68-2.1,14.12-13.28,25.24-7,8.82,5,6.41,29.41-17,26.66-15.23-1.79-26.25-7.19-39.79.61,9.64-1.42,21.35-3.67,37.75,12.37,0,0-27.8-11-41.27,1s-14.6,26-14.6,38.69c0,12.1,1.29,22.67,3.94,31.78s6.92,15.78,12.8,20.07a33.61,33.61,0,0,0,18,6.32l.29-.11,0,.13c.84,0,1.7.08,2.56.08a39.35,39.35,0,0,0,8.64-1,56.69,56.69,0,0,0,9.09-2.83V149.64c0-5-.33-8.32-1-9.82a9,9,0,0,0-3.91-4A13.38,13.38,0,0,0,173,134h-3Z"/><path class="cls-2" d="M154.24,219.65v4.62H140.91v34.16h-5.44V224.27H122.14v-4.62Z"/><path class="cls-2" d="M172.83,219.52h4.85V234a13.69,13.69,0,0,1,3.1-3,10.54,10.54,0,0,1,5.84-1.51q6.27,0,8.51,4.31a14.38,14.38,0,0,1,1.21,6.52v18.13h-5V240.61a9.74,9.74,0,0,0-.81-4.56q-1.32-2.33-5-2.33a8.36,8.36,0,0,0-5.47,2q-2.44,2-2.45,7.68v15h-4.85Z"/><path class="cls-2" d="M235.8,230.94a10.85,10.85,0,0,1,4.39,3.65,12.45,12.45,0,0,1,1.94,5,31.87,31.87,0,0,1,.43,6.23H221.43a12,12,0,0,0,2.07,6.91q1.94,2.59,6,2.6a7.82,7.82,0,0,0,6.06-2.46,8.25,8.25,0,0,0,1.83-3.3h4.77a9.82,9.82,0,0,1-1.25,3.48,12.46,12.46,0,0,1-2.39,3.12,11.3,11.3,0,0,1-5.46,2.85,16.51,16.51,0,0,1-4,.43A12.27,12.27,0,0,1,220,255.6q-3.74-3.84-3.74-10.76T220,233.78a12.52,12.52,0,0,1,9.85-4.25A13.37,13.37,0,0,1,235.8,230.94Zm1.78,11.1a12.19,12.19,0,0,0-1.37-4.94c-1.33-2.28-3.55-3.43-6.65-3.43A7.44,7.44,0,0,0,224,236a8.84,8.84,0,0,0-2.4,6Z"/><path class="cls-2" d="M319.9,220.76q5.89,3,7.22,10.64h-5.31a9.4,9.4,0,0,0-4-6.19,14.07,14.07,0,0,0-7.68-1.94,12.12,12.12,0,0,0-9.24,4q-3.76,4-3.76,12,0,6.92,3.1,11.26T310.31,255a13.08,13.08,0,0,0,8.88-3q3.51-3,3.59-9.86H310.39v-4.36h17.37v20.75h-3.44l-1.3-5a20.12,20.12,0,0,1-4.82,4.07,18.38,18.38,0,0,1-9,1.95A17.63,17.63,0,0,1,297.15,255q-5.52-5.59-5.52-15.36t5.38-15.5a17.29,17.29,0,0,1,13.25-5.49A20.62,20.62,0,0,1,319.9,220.76Z"/><path class="cls-2" d="M349.88,219.65h4.85v38.78h-4.85Z"/><path class="cls-2" d="M397.4,233q3.84,3.65,3.85,10.72a18.08,18.08,0,0,1-3.4,11.3q-3.39,4.47-10.52,4.46a12,12,0,0,1-9.46-3.94q-3.5-3.95-3.5-10.6,0-7.12,3.69-11.35a12.5,12.5,0,0,1,9.91-4.23A13.25,13.25,0,0,1,397.4,233Zm-3,18.81a17.53,17.53,0,0,0,1.79-7.95,14,14,0,0,0-1.3-6.45q-2-3.9-7.05-3.9c-3,0-5.12,1.1-6.46,3.32a15.18,15.18,0,0,0-2,8,13.16,13.16,0,0,0,2,7.52c1.34,2,3.48,3,6.4,3C391,255.37,393.2,254.18,394.4,251.79Z"/><path class="cls-2" d="M423.58,230.16l5.55,22.28,5.63-22.28h5.44l5.65,22.15,5.9-22.15h4.85l-8.38,28.27h-5l-5.87-21.88-5.68,21.88h-5l-8.32-28.27Z"/><path class="cls-2" d="M501.78,219.65H508l11.36,18.64,11.37-18.64H537L522.08,242.8v15.63h-5.35V242.8Z"/><path class="cls-2" d="M571.32,233q3.85,3.65,3.85,10.72a18.14,18.14,0,0,1-3.39,11.3q-3.39,4.47-10.53,4.46a12,12,0,0,1-9.45-3.94q-3.49-3.95-3.5-10.6,0-7.12,3.69-11.35a12.48,12.48,0,0,1,9.91-4.23A13.24,13.24,0,0,1,571.32,233Zm-3,18.81a17.53,17.53,0,0,0,1.79-7.95,14,14,0,0,0-1.29-6.45q-2.05-3.9-7.06-3.9a7,7,0,0,0-6.46,3.32,15.18,15.18,0,0,0-2,8,13.16,13.16,0,0,0,2,7.52c1.35,2,3.48,3,6.41,3C564.92,255.37,567.13,254.18,568.32,251.79Z"/><path class="cls-2" d="M600.12,230.16v18.77a7.77,7.77,0,0,0,.7,3.54q1.29,2.53,4.82,2.53a6.83,6.83,0,0,0,6.9-4.43,17.41,17.41,0,0,0,1-6.52V230.16h4.85v28.27H613.8l.05-4.17a9.33,9.33,0,0,1-2.34,2.72,10.43,10.43,0,0,1-6.73,2.22q-6.16,0-8.4-4a11.8,11.8,0,0,1-1.21-5.78V230.16Z"/><path class="cls-2" d="M670.83,219.65h16q8.16,0,12.66,5.68,4,5.11,4,13.12a25.72,25.72,0,0,1-2.37,11.17q-4.17,8.81-14.35,8.81h-16ZM685.78,254a15.08,15.08,0,0,0,4.47-.56,9.7,9.7,0,0,0,5.11-4,15.85,15.85,0,0,0,2.29-6,22.43,22.43,0,0,0,.41-4.06q0-7.22-2.93-11.2t-9.41-4h-9.5V254Z"/><path class="cls-2" d="M742.07,230.94a11,11,0,0,1,4.39,3.65,12.59,12.59,0,0,1,1.94,5,32.69,32.69,0,0,1,.43,6.23H727.69a12,12,0,0,0,2.07,6.91q1.95,2.59,6,2.6a7.84,7.84,0,0,0,6.06-2.46,8.25,8.25,0,0,0,1.83-3.3h4.76a9.63,9.63,0,0,1-1.25,3.48,12.44,12.44,0,0,1-2.38,3.12,11.34,11.34,0,0,1-5.47,2.85,16.39,16.39,0,0,1-4,.43,12.24,12.24,0,0,1-9.12-3.84q-3.75-3.84-3.75-10.76t3.77-11.06a12.54,12.54,0,0,1,9.86-4.25A13.4,13.4,0,0,1,742.07,230.94Zm1.78,11.1a12.18,12.18,0,0,0-1.38-4.94c-1.33-2.28-3.54-3.43-6.65-3.43a7.47,7.47,0,0,0-5.6,2.36,8.84,8.84,0,0,0-2.4,6Z"/><path class="cls-2" d="M772,249.56a6.85,6.85,0,0,0,1.21,3.65q1.83,2.29,6.36,2.29a9.51,9.51,0,0,0,4.74-1.15,3.79,3.79,0,0,0,2-3.55,3,3,0,0,0-1.64-2.77,20.25,20.25,0,0,0-4.15-1.34l-3.85-.95a19.06,19.06,0,0,1-5.44-2,6,6,0,0,1-3.12-5.33,8.08,8.08,0,0,1,3-6.5,11.93,11.93,0,0,1,7.93-2.48q6.51,0,9.39,3.75a8,8,0,0,1,1.76,5.12H785.6a5.47,5.47,0,0,0-1.16-2.93q-1.66-1.87-5.79-1.87a7,7,0,0,0-4.16,1,3.19,3.19,0,0,0-1.41,2.71,3.34,3.34,0,0,0,1.85,3,11.22,11.22,0,0,0,3.18,1.16l3.21.77a25.45,25.45,0,0,1,7,2.4,6.34,6.34,0,0,1,2.82,5.73,8.64,8.64,0,0,1-2.92,6.52q-2.91,2.75-8.9,2.75-6.44,0-9.11-2.87a10.72,10.72,0,0,1-2.87-7.09Z"/><path class="cls-2" d="M829,230.94a10.91,10.91,0,0,1,4.39,3.65,12.45,12.45,0,0,1,1.94,5,31.87,31.87,0,0,1,.43,6.23H814.61a11.91,11.91,0,0,0,2.08,6.91q1.93,2.59,6,2.6a7.84,7.84,0,0,0,6.06-2.46,8.25,8.25,0,0,0,1.83-3.3h4.77a9.86,9.86,0,0,1-1.26,3.48,12.21,12.21,0,0,1-2.38,3.12,11.3,11.3,0,0,1-5.46,2.85,16.51,16.51,0,0,1-4,.43,12.26,12.26,0,0,1-9.13-3.84q-3.75-3.84-3.74-10.76t3.77-11.06a12.51,12.51,0,0,1,9.85-4.25A13.37,13.37,0,0,1,829,230.94Zm1.78,11.1a12.35,12.35,0,0,0-1.37-4.94c-1.33-2.28-3.55-3.43-6.65-3.43a7.48,7.48,0,0,0-5.61,2.36,8.88,8.88,0,0,0-2.39,6Z"/><path class="cls-2" d="M856.17,230.16h4.61V235a10.93,10.93,0,0,1,2.77-3.47,7.28,7.28,0,0,1,5.09-2l.46,0,1.1.11v5c-.28,0-.55-.08-.79-.1s-.51,0-.79,0a7,7,0,0,0-5.63,2.31,8,8,0,0,0-2,5.32v16.26h-4.85Z"/><path class="cls-2" d="M891.11,230.16l7.71,23,8-23h5.3l-10.88,28.27h-5.17l-10.63-28.27Z"/><path class="cls-2" d="M948.62,230.94a11,11,0,0,1,4.39,3.65,12.59,12.59,0,0,1,1.94,5,32.69,32.69,0,0,1,.43,6.23H934.24a12,12,0,0,0,2.07,6.91q1.94,2.59,6,2.6a7.84,7.84,0,0,0,6.06-2.46,8.25,8.25,0,0,0,1.83-3.3H955a9.63,9.63,0,0,1-1.25,3.48,12.44,12.44,0,0,1-2.38,3.12,11.38,11.38,0,0,1-5.47,2.85,16.51,16.51,0,0,1-4,.43,12.27,12.27,0,0,1-9.13-3.84Q929,251.76,929,244.84t3.77-11.06a12.53,12.53,0,0,1,9.86-4.25A13.4,13.4,0,0,1,948.62,230.94Zm1.77,11.1A12,12,0,0,0,949,237.1c-1.33-2.28-3.54-3.43-6.65-3.43a7.45,7.45,0,0,0-5.6,2.36,8.84,8.84,0,0,0-2.4,6Z"/><path d="M1011.06,36.9h-3.29V35.72h8V36.9h-3.3v9.62h-1.41Z"/><path d="M1026.07,41.77c-.08-1.5-.18-3.31-.16-4.66h-.05c-.37,1.27-.82,2.61-1.36,4.1l-1.91,5.24h-1.06l-1.75-5.14c-.51-1.52-.94-2.92-1.24-4.2h0c0,1.35-.11,3.16-.21,4.78l-.28,4.63h-1.33l.75-10.8h1.78l1.84,5.22c.45,1.33.82,2.52,1.09,3.64h.05a37.4,37.4,0,0,1,1.14-3.64l1.92-5.22H1027l.67,10.8h-1.36Z"/></svg>