<?xml version="1.0" standalone="no"?>
<!DOCTYPE svg PUBLIC "-//W3C//DTD SVG 20010904//EN"
 "http://www.w3.org/TR/2001/REC-SVG-20010904/DTD/svg10.dtd">
<svg version="1.0" xmlns="http://www.w3.org/2000/svg"
 width="58.000000pt" height="60.000000pt" viewBox="0 0 58.000000 60.000000"
 preserveAspectRatio="xMidYMid meet">
<metadata>
Created by potrace 1.10, written by Peter Selinger 2001-2011
</metadata>
<g transform="translate(0.000000,60.000000) scale(0.100000,-0.100000)"
fill="#000000" stroke="none">
<path d="M411 571 c-9 -5 0 -8 25 -7 42 1 57 -21 33 -51 -11 -12 -24 -14 -74
-7 -72 9 -126 7 -160 -6 -19 -7 -25 -6 -25 4 0 7 -10 21 -21 32 -22 19 -22 19
-10 -4 14 -26 7 -58 -15 -66 -23 -9 -30 25 -9 40 16 12 17 14 2 14 -20 0 -36
-27 -30 -49 3 -11 -5 -22 -21 -31 -14 -7 -26 -17 -26 -22 0 -5 12 -1 27 9 l26
17 -26 -47 c-15 -26 -27 -55 -27 -64 0 -9 -12 -29 -27 -45 -20 -21 -23 -30
-15 -41 9 -10 8 -17 -1 -26 -9 -9 -9 -14 2 -20 10 -6 10 -10 2 -16 -8 -5 -9
-11 -2 -19 6 -7 9 -25 8 -42 -2 -28 -1 -29 48 -32 27 -2 57 -10 65 -17 59 -53
182 -69 292 -39 l58 17 0 66 c0 74 5 86 40 100 19 7 -5 10 -90 9 -63 0 -106
-3 -95 -5 39 -10 45 -23 45 -99 l0 -73 -35 -7 c-52 -9 -98 3 -128 34 -34 35
-46 69 -53 150 -7 80 6 136 42 177 24 28 31 30 94 30 59 0 65 2 48 13 -10 8
-40 17 -66 21 -40 6 -44 8 -24 15 13 4 51 3 85 -4 76 -14 113 -3 123 36 4 15
2 34 -3 43 -11 18 -61 26 -82 12z m-233 -183 c-20 -38 -23 -57 -22 -150 l0
-108 -27 0 c-39 0 -51 22 -51 93 1 22 9 48 21 63 12 15 21 34 21 43 1 18 49
111 50 96 0 -5 6 -1 12 10 23 38 19 -4 -4 -47z"/>
</g>
</svg>
